<svg xmlns="http://www.w3.org/2000/svg" width="60.796" height="60.41" viewBox="0 0 60.796 60.41">
    <g data-name="Group 7014">
        <circle data-name="Ellipse 4" cx="7.411" cy="7.411" r="7.411" style="fill:#006feb" transform="translate(22.992 22.792)"/>
        <path data-name="Path 102" d="M2589.163 1555.031a30.407 30.407 0 0 0 38.774 3.522l-10.143-10.143a16.5 16.5 0 1 1-14.019-29.869v-14.618a30.4 30.4 0 0 0-14.612 51.108zm33.16-33.16a16.5 16.5 0 0 1 3.566 18.007l10.246 10.246a30.406 30.406 0 0 0-20.606-46.6v14.245a16.457 16.457 0 0 1 6.794 4.103z" transform="translate(-2580.259 -1503.525)" style="fill:#006feb"/>
    </g>
</svg>
