<svg data-name="Group 7021" xmlns="http://www.w3.org/2000/svg" width="60" height="72.311" viewBox="0 0 60 72.311">
    <path data-name="Path 10" d="m4986.967 1509.914 11.3 7.419 12.982-6.745-11.166-6.869z" transform="translate(-4985.281 -1489.454)" style="fill:#734a76"/>
    <path data-name="Path 11" d="m4978.605 1540.294 12.813 8.093v15.175l-12.813-8.093z" transform="translate(-4978.605 -1518.675)" style="fill:#734a76"/>
    <path data-name="Path 12" d="m4978.605 1629.759 12.813 8.43v15.174l-12.813-8.43z" transform="translate(-4978.605 -1590.158)" style="fill:#734a76"/>
    <path data-name="Path 13" d="m5051.348 1587.117 12.308 7.25v15.68l-12.308-8.093z" transform="translate(-5036.706 -1556.075)" style="fill:#734a76"/>
    <path data-name="Path 14" d="m5051.348 1676.581 12.308 8.093v15.175l-12.308-8.43z" transform="translate(-5036.706 -1627.538)" style="fill:#734a76"/>
    <path data-name="Path 15" d="m5055.529 1550.713 12.476-6.238 11.3 6.238-11.886 7.25z" transform="translate(-5040.055 -1522.006)" style="fill:#734a76"/>
    <path data-name="Path 16" d="m5121.581 1594.535 11.8-7.419v14.837l-11.8 8.093z" transform="translate(-5092.801 -1556.075)" style="fill:#734a76"/>
    <path data-name="Path 17" d="m5121.581 1684.674 11.8-8.093v15.175l-11.8 8.093z" transform="translate(-5092.801 -1627.538)" style="fill:#734a76"/>
    <path data-name="Path 18" d="m5190.979 1552.062 12.31-7.587v14.5l-12.31 7.566z" transform="translate(-5148.241 -1522.013)" style="fill:#734a76"/>
    <path data-name="Path 19" d="m5190.979 1639.951 12.457-8 .094 14.542-12.551 8.409z" transform="translate(-5148.241 -1591.91)" style="fill:#734a76"/>
    <path data-name="Path 20" d="m5059.918 1478.05 11.412 6.828 11.982-6.7-11.634-5.817z" transform="translate(-5043.561 -1464.393)" style="fill:#734a76"/>
    <path data-name="Path 21" d="m5180.11 1446.194 6.176-12.14 13.277-1.2-5.5 12.2z" transform="translate(-5139.563 -1432.853)" style="fill:#734a76"/>
</svg>
