<svg id="Group_8640" data-name="Group 8640" xmlns="http://www.w3.org/2000/svg" width="42.61" height="57.264" viewBox="0 0 42.61 57.264">
  <g id="Group_8628" data-name="Group 8628" transform="translate(11.942 8.557)">
    <path id="Path_3348" data-name="Path 3348" d="M-608.989,974.427a9.445,9.445,0,0,0-9.362,8.2h3.022a6.47,6.47,0,0,1,6.34-5.215,6.469,6.469,0,0,1,6.463,6.461,6.469,6.469,0,0,1-6.463,6.462,6.48,6.48,0,0,1-5.625-3.28h-3.269c.087.246.185.486.291.722a9.448,9.448,0,0,0,8.6,5.541,9.445,9.445,0,0,0,9.445-9.444A9.445,9.445,0,0,0-608.989,974.427Z" transform="translate(618.351 -974.427)" fill="#515aae"/>
  </g>
  <g id="Group_8629" data-name="Group 8629" transform="translate(6.984)">
    <path id="Path_3349" data-name="Path 3349" d="M-636.972,917.58a14.322,14.322,0,0,0-14.32,14.1h2.983a11.354,11.354,0,0,1,11.338-11.122,11.354,11.354,0,0,1,11.339,11.122h2.983A14.322,14.322,0,0,0-636.972,917.58Z" transform="translate(651.292 -917.58)" fill="#8246af"/>
  </g>
  <g id="Group_8630" data-name="Group 8630" transform="translate(19.813 26.93)">
    <rect id="Rectangle_3217" data-name="Rectangle 3217" width="2.983" height="30.334" fill="#515aae"/>
  </g>
  <g id="Group_8631" data-name="Group 8631" transform="translate(19.813 54.281)">
    <rect id="Rectangle_3218" data-name="Rectangle 3218" width="7.967" height="2.983" fill="#515aae"/>
  </g>
  <g id="Group_8632" data-name="Group 8632" transform="translate(19.813 48.185)">
    <rect id="Rectangle_3219" data-name="Rectangle 3219" width="5.826" height="2.983" fill="#515aae"/>
  </g>
  <g id="Group_8633" data-name="Group 8633" transform="translate(0 16.327)">
    <path id="Path_3350" data-name="Path 3350" d="M-663.25,1026.051h-3.157a10.177,10.177,0,0,1,.138,1.674,10.28,10.28,0,0,1-.083,1.309h3.1a5.19,5.19,0,0,1,5.184,5.184v18.508a5.184,5.184,0,0,1-5.184,5.184H-668.3a1.491,1.491,0,0,0-1.491,1.491h0a1.491,1.491,0,0,0,1.491,1.491h5.051a8.166,8.166,0,0,0,8.166-8.167v-18.508A8.166,8.166,0,0,0-663.25,1026.051Zm-34.443,8.166v18.508a8.166,8.166,0,0,0,8.166,8.167h11.647v-2.983h-11.647a5.184,5.184,0,0,1-5.184-5.184v-18.508a5.184,5.184,0,0,1,5.184-5.184h12.735a1.491,1.491,0,0,0,1.491-1.491h0a1.491,1.491,0,0,0-1.491-1.491h-12.735A8.166,8.166,0,0,0-697.693,1034.217Z" transform="translate(697.693 -1026.051)" fill="#8246af"/>
  </g>
</svg>
