<svg data-name="Group 7022" xmlns="http://www.w3.org/2000/svg" width="60" height="59.35" viewBox="0 0 60 59.35">
    <g data-name="Group 76">
        <path data-name="Path 138" d="M213.075 118.977a50.452 50.452 0 0 0 9.54 6.853l6.01-.533 1.763 4.174a53.376 53.376 0 0 0 10.426 2.846l8.229-44.2-36.295 30.623z" transform="translate(-202.205 -88.121)" style="fill:#5e4e89"/>
        <path data-name="Path 139" d="m268.677 219.346 5.764 13.644 2.278-12.234a50.479 50.479 0 0 1-8.042-1.41z" transform="translate(-238.655 -173.64)" style="fill:#5e4e89"/>
        <path data-name="Path 140" d="m190.814 181.394-8.333 7.031 14.714-1.3a36.138 36.138 0 0 1-6.381-5.731z" transform="translate(-182.481 -148.907)" style="fill:#5e4e89"/>
    </g>
    <path data-name="Path 141" d="M192.145 113.307c2.813-1.393 6.852-2.054 11.462-1.946v.645c-4.735-.068-10.5.46-13.433 4.238-2.1 2.7-1.9 6.385.427 10.366 3.426 5.872 10.441 10.932 16.587 14.08 10.891 5.571 23.37 7.61 30.585 4.48 8.006-3.477 5.377-13.747-3.923-22.237l-.068-.7c12.273 10 14.706 21.433 5.338 25.773-7.363 3.407-21.263 1.981-33.147-3.493-7.4-3.409-15.959-9.5-18.921-17.082-2.392-6.129-.257-11.472 5.091-14.121" transform="translate(-184.827 -103.26)" style="fill-rule:evenodd;fill:#5e4e89"/>
</svg>
