<svg data-name="Group 7020" xmlns="http://www.w3.org/2000/svg" width="60" height="60.246" viewBox="0 0 60 60.246">
    <g data-name="Group 2210">
        <path data-name="Path 866" d="M2786.854 4093.382c2.872-1.423 7-2.1 11.706-1.988v.659c-4.836-.069-10.721.469-13.719 4.33-2.147 2.764-1.937 6.524.437 10.591 3.5 6 10.664 11.17 16.941 14.386 11.124 5.692 23.869 7.775 31.237 4.578 8.177-3.554 5.492-14.046-4.006-22.721l-.069-.719c12.534 10.212 15.019 21.9 5.452 26.333-7.52 3.481-21.716 2.024-33.854-3.568-7.558-3.483-16.3-9.712-19.324-17.454-2.443-6.262-.263-11.722 5.2-14.427" transform="translate(-2780.66 -4081.894)" style="fill:#4c4167;fill-rule:evenodd"/>
        <path data-name="Path 867" d="m2873.068 4063.95-16.652-9.488a1.852 1.852 0 0 0-2.514.674l-.321.549a1.851 1.851 0 0 0 .682 2.542l.358.2-19.39 33.137a33.4 33.4 0 0 0 7.276 4.992 36.423 36.423 0 0 0 9.271 3.273l8.282-14.154a56.8 56.8 0 0 0-.5-.475l-.043-.449q.375.305.73.613l10.416-17.8.257.146a1.85 1.85 0 0 0 2.514-.673l.321-.548a1.85 1.85 0 0 0-.687-2.539zm-15.839 21.332-13.5-3 12.835-21.934 11.442 6.52z" transform="translate(-2821.304 -4054.219)" style="fill:#4c4167;fill-rule:evenodd"/>
        <path data-name="Path 868" d="m2814.238 4209.394-4.278 7.311a8.064 8.064 0 0 0 2.968 11.08l2.022 1.153a8.065 8.065 0 0 0 10.95-2.938l5.069-8.662a38.492 38.492 0 0 1-8.876-2.833 31.286 31.286 0 0 1-7.855-5.111z" transform="translate(-2801.645 -4169.75)" style="fill:#4c4167;fill-rule:evenodd"/>
        <path data-name="Path 869" d="m2881.975 4157.014-11.5-6.429-2.005 3.427z" transform="translate(-2846.038 -4125.961)" style="fill:#4c4167;fill-rule:evenodd"/>
        <path data-name="Path 870" d="m2930.153 4172.521-.182.311-.712-.155-.109-1 .655-.372z" transform="translate(-2891.206 -4141.384)" style="fill:#4c4167;fill-rule:evenodd"/>
    </g>
</svg>
