<svg xmlns="http://www.w3.org/2000/svg" width="372.001" height="103.158" viewBox="0 0 372.001 103.158">
  <g id="EZ_WEB" data-name="EZ WEB" transform="translate(67.012 -190.078)">
    <g id="Group_2708" data-name="Group 2708" transform="translate(76.071 221.077)">
      <g id="Group_2702" data-name="Group 2702" transform="translate(8.402)">
        <path id="Path_1098" data-name="Path 1098" d="M2650.886,614.576H2619.8v-41.53h31.088v7.594H2627.57v9.552h22.486v7.3H2627.57v9.374h23.316Z" transform="translate(-2619.798 -573.046)" fill="#004be1"/>
        <path id="Path_1099" data-name="Path 1099" d="M2695.051,573.046h31.918v3.679l-21.536,30.435h21.536v7.416h-32.453v-4.509l21.062-29.664h-20.527Z" transform="translate(-2659.812 -573.046)" fill="#004be1"/>
        <path id="Path_1100" data-name="Path 1100" d="M2842.243,614.576H2835.6l-5.162-13.052-4.39-13.112-4.331,13.23-5.043,12.934h-6.645l-15.248-41.53h8.781l9.789,29.961,10.086-29.961h5.1l10.383,29.961,9.492-29.961h8.781Z" transform="translate(-2713.504 -573.046)" fill="#004be1"/>
        <path id="Path_1101" data-name="Path 1101" d="M2970.325,614.576h-31.089v-41.53h31.089v7.594h-23.316v9.552h22.485v7.3h-22.485v9.374h23.316Z" transform="translate(-2790.862 -573.046)" fill="#004be1"/>
        <path id="Path_1102" data-name="Path 1102" d="M3052.677,585.09a8.446,8.446,0,0,1-5.4,8.01c4.865,1.483,6.645,6.644,6.645,9.255,0,9.255-6.941,12.221-15.544,12.221h-19.7v-41.53h19.7C3046.566,573.046,3052.677,576.725,3052.677,585.09Zm-26.283,4.627h11.984c4.924,0,6.526-2.076,6.526-4.45,0-1.9-1.543-5.1-6.526-5.1h-11.984Zm0,17.562h11.984c3.2,0,7.772-1.068,7.772-4.983,0-3.738-4.568-5.7-7.772-5.7h-11.984Z" transform="translate(-2833.407 -573.046)" fill="#004be1"/>
      </g>
    </g>
    <g id="Group_2709" data-name="Group 2709" transform="translate(-67.012 190.077)">
      <g id="Group_2703" data-name="Group 2703" transform="translate(11.5)">
        <path id="Path_1103" data-name="Path 1103" d="M2821.157,304.86v7.861c-.274.08-.182.315-.208.5-.222,1.594-.367,3.2-.672,4.779a51.816,51.816,0,0,1-44.889,41.74,5.145,5.145,0,0,0-2.2.352h-7.659c-.082-.272-.317-.186-.5-.205a54.5,54.5,0,0,1-6.554-1.016,51.916,51.916,0,0,1-39.995-43.053,10.117,10.117,0,0,0-.52-3.093v-8.062a17.44,17.44,0,0,0,.474-3.216,50.181,50.181,0,0,1,15.083-29.754c12.786-12.244,28.063-16.855,45.5-13.886a48.753,48.753,0,0,1,24.388,11.815,50.983,50.983,0,0,1,17.4,32.823A6.892,6.892,0,0,0,2821.157,304.86Zm-88.887,1.835c3.289,0,6.579-.011,9.867.01.558,0,.809-.063.832-.737a64.5,64.5,0,0,1,4.526-21.726c.233-.589.28-.893-.436-1.146a60.491,60.491,0,0,1-12.585-6.175c-.584-.375-.854-.256-1.281.246A48.134,48.134,0,0,0,2721.6,305.8c-.055.809.185.92.9.912C2725.759,306.674,2729.014,306.695,2732.271,306.695Zm74.532,0c3.323,0,6.646-.015,9.968.014.607.005.8-.109.752-.765a52.725,52.725,0,0,0-1.083-7.864,48.3,48.3,0,0,0-10.423-20.8c-.5-.588-.8-.724-1.51-.27a60.8,60.8,0,0,1-12.313,6.052c-.732.264-.844.508-.554,1.239a64.327,64.327,0,0,1,4.5,21.63c.025.732.31.783.894.779C2800.291,306.684,2803.546,306.695,2806.8,306.695Zm.146,3.587c-3.324,0-6.648.011-9.97-.01-.559,0-.809.064-.833.737a63.514,63.514,0,0,1-3.987,20.224c-.215.573-.184.831.462,1.071a63.163,63.163,0,0,1,13.033,6.637c.517.344.769.313,1.174-.193a48.306,48.306,0,0,0,10.69-27.565c.053-.8-.17-.926-.9-.917C2813.395,310.3,2810.171,310.281,2806.948,310.281Zm-74.675,0c-3.29,0-6.581.015-9.87-.013-.624-.005-.87.1-.808.807a59.985,59.985,0,0,0,.892,6.88,48.414,48.414,0,0,0,9.922,20.946c.443.55.7.255,1.041.028a64.377,64.377,0,0,1,12.947-6.588c.709-.263.786-.519.531-1.2a63.346,63.346,0,0,1-3.953-20.027c-.027-.742-.275-.854-.932-.847C2738.787,310.3,2735.53,310.281,2732.274,310.281Zm49.692-3.587c3.221,0,6.443-.037,9.663.024.885.017,1.063-.238.958-1.057-.149-1.162-.145-2.342-.26-3.509a61.705,61.705,0,0,0-4.211-17.1c-.179-.444-.372-.506-.814-.383a65.567,65.567,0,0,1-15.16,2.35c-.66.023-.807.258-.8.887q.037,8.959,0,17.918c0,.69.143.9.866.89C2775.456,306.671,2778.71,306.695,2781.966,306.695Zm-24.853,0c3.221,0,6.442-.02,9.664.015.731.008,1.017-.106,1.011-.95q-.065-8.857,0-17.716c0-.779-.214-1.018-.973-1.042a63.178,63.178,0,0,1-14.957-2.338c-.715-.2-.766.2-.937.63a61.683,61.683,0,0,0-4.392,20.524c-.028.692.092.9.823.894C2750.6,306.671,2753.858,306.695,2757.113,306.695Zm24.841,3.587c-3.258,0-6.516.016-9.774-.013-.625-.005-.85.115-.846.806q.048,8.111,0,16.223c0,.737.264.891.916.91a62.675,62.675,0,0,1,15.554,2.482c.592.17.774.052.984-.52a62.219,62.219,0,0,0,3.814-19.148c.026-.685-.2-.754-.772-.75C2788.537,310.294,2785.245,310.281,2781.954,310.281Zm-24.778,0c-3.292,0-6.583.02-9.874-.016-.682-.008-.8.19-.778.84a62.164,62.164,0,0,0,3.8,19.049c.2.556.376.7.979.532a63.153,63.153,0,0,1,15.654-2.486c.65-.018.828-.241.825-.892q-.04-8.111,0-16.222c0-.665-.18-.829-.831-.822C2763.692,310.3,2760.434,310.281,2757.176,310.281Zm-21.938,31.755a48.3,48.3,0,0,0,28.066,14.056c-.719-.7-1.251-1.207-1.762-1.73a65.706,65.706,0,0,1-12.6-18.295c-.15-.325-.155-.862-.868-.59A63.557,63.557,0,0,0,2735.238,342.036Zm68.639,0c-.29-.191-.536-.356-.785-.517a63.707,63.707,0,0,0-11.723-5.915c-.717-.277-.944-.134-1.235.5a64.809,64.809,0,0,1-13.518,19.226c-.2.2-.493.351-.555.726A48.055,48.055,0,0,0,2803.877,342.035Zm-32.526,13.313a62.448,62.448,0,0,0,15.766-21.151c-.183-.055-.3-.093-.421-.127a66.112,66.112,0,0,0-14.348-2.36c-.9-.054-1.022.2-1.016,1,.037,4.9.019,9.8.019,14.7ZM2752,334.208a62.171,62.171,0,0,0,15.766,21.124c0-7.8-.007-15.379.013-22.962,0-.605-.191-.7-.747-.666A64.047,64.047,0,0,0,2752,334.208Zm11.269-73.319a48.094,48.094,0,0,0-26.947,13,64.194,64.194,0,0,0,11.977,5.922c.719.269,1.056.234,1.424-.532a61.315,61.315,0,0,1,6.857-10.963A71.319,71.319,0,0,1,2763.267,260.889Zm39.54,13A48.008,48.008,0,0,0,2776,260.916a2.185,2.185,0,0,0,.208.323,65.575,65.575,0,0,1,13.352,18.355c.236.488.46.488.928.32A62.407,62.407,0,0,0,2802.807,273.884Zm-16.424,7.315a62.347,62.347,0,0,0-15.031-19.557c0,7.242,0,14.284-.01,21.325,0,.475.183.543.592.523A63.265,63.265,0,0,0,2786.383,281.2Zm-33.645,0a64.774,64.774,0,0,0,14.123,2.293c.785.048.924-.173.92-.909-.029-6.711-.016-13.422-.023-20.133,0-.212.109-.46-.144-.685A62.1,62.1,0,0,0,2752.738,281.2Z" transform="translate(-2717.958 -256.931)" fill="#004be1"/>
      </g>
      <g id="Group_2704" data-name="Group 2704" transform="translate(0 5.354)">
        <path id="Path_1104" data-name="Path 1104" d="M2696.525,270.366c6.444-3.361,15.7-4.957,26.261-4.7v1.558c-10.849-.163-24.053,1.11-30.778,10.231-4.816,6.528-4.347,15.412.98,25.02,7.849,14.173,23.923,26.388,38,33.987,24.954,13.449,53.545,18.37,70.075,10.814,18.345-8.394,12.32-33.183-8.987-53.677l-.155-1.7c28.119,24.127,33.693,51.736,12.23,62.213-16.869,8.224-48.716,4.782-75.944-8.432-16.955-8.227-36.564-22.942-43.351-41.234-5.481-14.794-.59-27.692,11.666-34.085" transform="translate(-2682.629 -265.641)" fill="#004be1" fill-rule="evenodd"/>
      </g>
    </g>
  </g>
</svg>
