<svg xmlns="http://www.w3.org/2000/svg" width="60" height="45.276" viewBox="0 0 60 45.276">
  <path id="Union_45" data-name="Union 45" d="M27.232,45.276c-.028-.092-.1-.091-.165-.089a.5.5,0,0,1-.058,0,24.669,24.669,0,0,1-2.922-.446A22.856,22.856,0,0,1,11.4,37.12,22.15,22.15,0,0,1,6.419,26.771,25.138,25.138,0,0,1,.995,18.5C-1.449,12,.732,6.342,6.195,3.537c2.872-1.475,7-2.176,11.706-2.061v.684c-4.836-.071-10.722.487-13.719,4.49-2.147,2.865-1.938,6.764.437,10.981a23.805,23.805,0,0,0,1.567,2.416c.015-.171.029-.341.054-.511A21.908,21.908,0,0,1,12.962,6.477,22.694,22.694,0,0,1,33.244.383,21.873,21.873,0,0,1,44.115,5.568,22.5,22.5,0,0,1,50.541,14.6c10.933,10.179,12.715,21.325,3.631,25.691C50.78,41.923,46.027,42.51,40.72,42.13a23.07,23.07,0,0,1-9.092,2.991,2.325,2.325,0,0,0-.982.154Zm-13.5-7.923a21.654,21.654,0,0,0,12.511,6.169c-.321-.309-.558-.53-.785-.759a28.857,28.857,0,0,1-2.371-2.71A29.153,29.153,0,0,1,20.969,36.9q-.327-.151-.651-.306c-.881-.421-1.778-.88-2.679-1.376A27.321,27.321,0,0,0,13.73,37.353Zm18.445,5.835c-.091.089-.22.154-.248.319a22.2,22.2,0,0,0,5.895-1.672c-1.242-.164-2.5-.376-3.778-.636Q33.161,42.229,32.175,43.188Zm-2.347.007a29.26,29.26,0,0,0,2.449-2.388q-1.222-.29-2.449-.636Zm-1.6-.007q0-1.761,0-3.493c-1.566-.49-3.129-1.048-4.673-1.674A27.5,27.5,0,0,0,28.229,43.188ZM51.871,19.974a2.984,2.984,0,0,0,.159,1.062v3.45c-.122.035-.081.138-.092.218-.1.7-.164,1.405-.3,2.1a22.183,22.183,0,0,1-6.174,11.632q-.208.208-.418.41a20.154,20.154,0,0,0,7.75-1.55c7.493-3.376,5.865-12.793-1.767-21.266A23.893,23.893,0,0,1,51.871,19.974ZM42.708,38.811q.833-.682,1.619-1.459c-.129-.084-.239-.156-.35-.227a28.574,28.574,0,0,0-5.226-2.6c-.319-.122-.421-.059-.55.22a27.88,27.88,0,0,1-1.773,3.235A41.309,41.309,0,0,0,42.708,38.811Zm-7.929-1.2a27.479,27.479,0,0,0,2.078-3.7l-.188-.056a29.9,29.9,0,0,0-6.4-1.036c-.4-.024-.456.088-.453.441q.011,1.446.01,2.893C31.488,36.729,33.146,37.218,34.779,37.614Zm-22.31-1.637c.2.241.31.112.464.013a29.638,29.638,0,0,1,3.043-1.726,48.1,48.1,0,0,1-7.381-5.383A21.175,21.175,0,0,0,12.469,35.977ZM40.88,23.735A27.5,27.5,0,0,1,39.1,32.611c-.1.252-.082.365.206.47a28.324,28.324,0,0,1,5.81,2.913c.23.151.343.137.523-.085a21.014,21.014,0,0,0,4.765-12.1c.024-.35-.076-.407-.4-.4-1.436.018-2.873.008-4.31.008-1.482,0-2.963,0-4.444,0h-.017C41,23.411,40.891,23.446,40.88,23.735ZM28.231,35.573q0-1.232,0-2.462c0-.266-.085-.305-.333-.292a30.893,30.893,0,0,0-4.662.587C24.884,34.211,26.555,34.935,28.231,35.573Zm1.59-11.809q.021,3.56,0,7.12c0,.323.118.391.408.4a28.335,28.335,0,0,1,6.934,1.089c.264.074.345.023.438-.228a26.956,26.956,0,0,0,1.7-8.4c.012-.3-.088-.331-.344-.329-1.467.01-2.934,0-4.4,0-1.452,0-2.9.007-4.357-.006h-.019C29.915,23.41,29.819,23.467,29.821,23.764Zm-8.7,8.546a28.441,28.441,0,0,1,6.753-1.029c.289-.008.369-.106.368-.391q-.018-3.56,0-7.12c0-.292-.081-.364-.37-.361-1.452.015-2.9.007-4.357.007s-2.934.009-4.4-.007c-.3,0-.358.083-.347.369a26.866,26.866,0,0,0,1.6,8.117Q20.742,32.106,21.116,32.309ZM18.3,30.675a27.6,27.6,0,0,1-1.121-6.894c-.012-.326-.122-.375-.415-.372-1.451.014-2.9.006-4.355.006-1.114,0-2.229,0-3.343,0A49.473,49.473,0,0,0,18.3,30.675Zm20.567-8.823c.395.007.474-.1.427-.464-.066-.51-.065-1.028-.116-1.54A26.752,26.752,0,0,0,37.3,12.342c-.08-.2-.166-.222-.363-.168a29.649,29.649,0,0,1-6.758,1.032c-.294.01-.36.113-.359.389q.016,3.932,0,7.864c0,.3.064.395.386.39,1.451-.019,2.9-.008,4.353-.008.785,0,1.571,0,2.357,0C37.567,21.837,38.217,21.84,38.867,21.852Zm-18.148-9.4a26.724,26.724,0,0,0-1.958,9.008c-.012.3.041.4.367.393,1.451-.019,2.9-.008,4.353-.008,1.436,0,2.872-.009,4.308.007.326,0,.453-.047.451-.417q-.029-3.888,0-7.776c0-.342-.1-.447-.434-.458a28.556,28.556,0,0,1-6.667-1.026.568.568,0,0,0-.147-.023C20.809,12.149,20.783,12.294,20.72,12.449Zm-7.9-3.567A20.952,20.952,0,0,0,7.651,21.449c-.025.355.082.4.4.4,1.451-.016,2.9-.007,4.354-.007s2.932,0,4.4,0c.248,0,.361-.027.371-.323a27.938,27.938,0,0,1,2.018-9.536c.1-.259.125-.392-.194-.5a27.151,27.151,0,0,1-5.61-2.71.5.5,0,0,0-.257-.1C13.023,8.677,12.934,8.749,12.819,8.882ZM50.075,21.848c.27,0,.357-.048.335-.336a22.792,22.792,0,0,0-.483-3.452,21.077,21.077,0,0,0-4.646-9.131c-.224-.258-.358-.318-.673-.119a27.273,27.273,0,0,1-5.489,2.656c-.326.116-.376.223-.247.544A27.852,27.852,0,0,1,40.879,21.5c.011.321.139.344.4.342,1.451-.009,2.9,0,4.354,0l2.266,0Q48.986,21.84,50.075,21.848Zm-28.543-11.2a29.278,29.278,0,0,0,6.3,1.006c.35.021.412-.076.41-.4-.013-2.945-.007-5.891-.011-8.836,0-.093.049-.2-.064-.3A27.309,27.309,0,0,0,21.531,10.651Zm8.293.777c0,.208.082.238.264.23a28.61,28.61,0,0,0,6.441-1.006,27.422,27.422,0,0,0-6.7-8.583C29.828,5.246,29.83,8.337,29.824,11.428Zm2.17-9.537a28.812,28.812,0,0,1,5.952,8.056c.106.214.205.214.414.14a28.025,28.025,0,0,0,5.49-2.646A21.535,21.535,0,0,0,31.9,1.749.953.953,0,0,0,31.994,1.891ZM14.213,7.442a28.8,28.8,0,0,0,5.339,2.6c.321.118.471.1.635-.233A26.827,26.827,0,0,1,23.243,5a31.555,31.555,0,0,1,2.982-3.259A21.575,21.575,0,0,0,14.213,7.442Z" fill="#004be1"/>
</svg>
