<svg xmlns="http://www.w3.org/2000/svg" width="90" height="90" viewBox="0 0 90 90">
  <g id="Dr_iQ" data-name="Dr iQ" transform="translate(12110 -12344)">
    <rect id="Rectangle_3231" data-name="Rectangle 3231" width="90" height="90" rx="30" transform="translate(-12110 12344)" fill="none"/>
    <g id="Group_8641" data-name="Group 8641" transform="translate(-12095 12359)">
      <g id="Kigi" transform="translate(22.992 22.792)">
        <circle id="Ellipse_4" data-name="Ellipse 4" cx="7.411" cy="7.411" r="7.411" fill="#006feb"/>
      </g>
      <path id="Path_102" data-name="Path 102" d="M2589.163,1555.031a30.407,30.407,0,0,0,38.774,3.522l-10.143-10.143a16.5,16.5,0,1,1-14.019-29.869v-14.618a30.4,30.4,0,0,0-14.612,51.108Zm33.16-33.16a16.5,16.5,0,0,1,3.566,18.007l10.246,10.246a30.406,30.406,0,0,0-20.606-46.6v14.245A16.457,16.457,0,0,1,2622.323,1521.872Z" transform="translate(-2580.259 -1503.525)" fill="#006feb"/>
    </g>
  </g>
</svg>
