<svg xmlns="http://www.w3.org/2000/svg" width="81.326" height="80.809" viewBox="0 0 81.326 80.809">
    <g data-name="Group 6497">
        <circle data-name="Ellipse 4" cx="9.816" cy="9.816" r="9.816" style="fill:#006feb" transform="translate(30.854 30.585)"/>
        <path data-name="Path 102" d="M2592.17 1572.424a40.675 40.675 0 0 0 51.867 4.711l-13.568-13.568a22.069 22.069 0 1 1-18.752-39.955v-19.554a40.672 40.672 0 0 0-19.547 68.366zm44.357-44.357a22.07 22.07 0 0 1 4.77 24.087L2655 1565.86a40.674 40.674 0 0 0-27.563-62.334v19.055a22.02 22.02 0 0 1 9.09 5.486z" transform="translate(-2580.259 -1503.527)" style="fill:#006feb"/>
    </g>
</svg>
