<svg xmlns="http://www.w3.org/2000/svg" width="90" height="90" viewBox="0 0 90 90">
  <g id="EZ_ANALYTICS" data-name="EZ ANALYTICS" transform="translate(11486 -12347)">
    <rect id="Rectangle_3234" data-name="Rectangle 3234" width="90" height="90" rx="30" transform="translate(-11486 12347)" fill="none"/>
    <g id="Group_8643" data-name="Group 8643" transform="translate(-11471 12356)">
      <path id="Path_10" data-name="Path 10" d="M4986.967,1509.914l11.3,7.419,12.982-6.745-11.166-6.869Z" transform="translate(-4985.281 -1489.454)" fill="#734a76"/>
      <path id="Path_11" data-name="Path 11" d="M4978.605,1540.294l12.813,8.093v15.175l-12.813-8.093Z" transform="translate(-4978.605 -1518.675)" fill="#734a76"/>
      <path id="Path_12" data-name="Path 12" d="M4978.605,1629.759l12.813,8.43v15.174l-12.813-8.43Z" transform="translate(-4978.605 -1590.158)" fill="#734a76"/>
      <path id="Path_13" data-name="Path 13" d="M5051.348,1587.117l12.308,7.25v15.68l-12.308-8.093Z" transform="translate(-5036.706 -1556.075)" fill="#734a76"/>
      <path id="Path_14" data-name="Path 14" d="M5051.348,1676.581l12.308,8.093v15.175l-12.308-8.43Z" transform="translate(-5036.706 -1627.538)" fill="#734a76"/>
      <path id="Path_15" data-name="Path 15" d="M5055.529,1550.713l12.476-6.238,11.3,6.238-11.886,7.25Z" transform="translate(-5040.055 -1522.006)" fill="#734a76"/>
      <path id="Path_16" data-name="Path 16" d="M5121.581,1594.535l11.8-7.419v14.837l-11.8,8.093Z" transform="translate(-5092.801 -1556.075)" fill="#734a76"/>
      <path id="Path_17" data-name="Path 17" d="M5121.581,1684.674l11.8-8.093v15.175l-11.8,8.093Z" transform="translate(-5092.801 -1627.538)" fill="#734a76"/>
      <path id="Path_18" data-name="Path 18" d="M5190.979,1552.062l12.31-7.587v14.5l-12.31,7.566Z" transform="translate(-5148.241 -1522.013)" fill="#734a76"/>
      <path id="Path_19" data-name="Path 19" d="M5190.979,1639.951l12.457-8,.094,14.542-12.551,8.409Z" transform="translate(-5148.241 -1591.91)" fill="#734a76"/>
      <path id="Path_20" data-name="Path 20" d="M5059.918,1478.05l11.412,6.828,11.982-6.7-11.634-5.817Z" transform="translate(-5043.561 -1464.393)" fill="#734a76"/>
      <path id="Path_21" data-name="Path 21" d="M5180.11,1446.194l6.176-12.14,13.277-1.2-5.5,12.2Z" transform="translate(-5139.563 -1432.853)" fill="#734a76"/>
    </g>
  </g>
</svg>
