<svg data-name="Group 2196" xmlns="http://www.w3.org/2000/svg" width="74.876" height="90.239" viewBox="0 0 74.876 90.239">
    <path data-name="Path 10" d="m4986.966 1511.438 14.077 9.245 16.178-8.4-13.914-8.56z" transform="translate(-4984.866 -1485.911)" style="fill:#734a76"/>
    <path data-name="Path 11" d="m4978.605 1540.294 15.968 10.085v18.909l-15.968-10.085z" transform="translate(-4978.605 -1513.296)" style="fill:#734a76"/>
    <path data-name="Path 12" d="m4978.605 1629.759 15.968 10.5v18.909l-15.968-10.5z" transform="translate(-4978.605 -1580.28)" style="fill:#734a76"/>
    <path data-name="Path 13" d="m5051.348 1587.116 15.336 9.035v19.54l-15.336-10.085z" transform="translate(-5033.069 -1548.353)" style="fill:#734a76"/>
    <path data-name="Path 14" d="m5051.348 1676.581 15.336 10.084v18.909l-15.336-10.5z" transform="translate(-5033.069 -1615.336)" style="fill:#734a76"/>
    <path data-name="Path 15" d="m5055.529 1552.248 15.545-7.774 14.078 7.774-14.812 9.035z" transform="translate(-5036.2 -1516.426)" style="fill:#734a76"/>
    <path data-name="Path 16" d="m5121.581 1596.361 14.708-9.245v18.489l-14.708 10.085z" transform="translate(-5085.653 -1548.353)" style="fill:#734a76"/>
    <path data-name="Path 17" d="m5121.581 1686.665 14.708-10.084v18.909l-14.708 10.085z" transform="translate(-5085.653 -1615.336)" style="fill:#734a76"/>
    <path data-name="Path 18" d="m5190.979 1553.929 15.339-9.454v18.068l-15.339 9.429z" transform="translate(-5137.613 -1516.426)" style="fill:#734a76"/>
    <path data-name="Path 19" d="m5190.979 1641.92 15.523-9.967.117 18.122-15.64 10.479z" transform="translate(-5137.613 -1581.922)" style="fill:#734a76"/>
    <path data-name="Path 20" d="m5059.918 1479.45 14.22 8.509 14.931-8.352-14.5-7.248z" transform="translate(-5039.486 -1462.432)" style="fill:#734a76"/>
    <path data-name="Path 21" d="m5180.11 1449.477 7.7-15.127 16.544-1.5-6.855 15.207z" transform="translate(-5129.475 -1432.853)" style="fill:#734a76"/>
</svg>
