<svg xmlns="http://www.w3.org/2000/svg" width="90" height="90" viewBox="0 0 90 90">
  <g id="EZ_DOC" data-name="EZ DOC" transform="translate(11901 -12343)">
    <rect id="Rectangle_3232" data-name="Rectangle 3232" width="90" height="90" rx="30" transform="translate(-11901 12343)" fill="none"/>
    <path id="Path_3379" data-name="Path 3379" d="M6199.83,1568.546c-4.4-1.987-7.327-2.978-10.658-5.672v12.763a2.962,2.962,0,0,0,2.663,2.836h32.25a2.468,2.468,0,0,0,2.4-2.531v-2.425C6219.4,1575.212,6209.411,1573.085,6199.83,1568.546Zm28.373-26.95v1.42c5.594,5.813,8.127,12.055,6.128,16.877-1.2,2.981-4.129,4.964-7.866,5.959v-34.182h-10.659a2.963,2.963,0,0,1-2.664-2.839v-8.507c0-.142,1.18,0,1.331,0v7.079c0,1.416.934,2.836,2.266,2.836h9.727l-11.992-12.766h-22.646a2.965,2.965,0,0,0-2.664,2.839v34.052c-6.925-6.242-10.921-14.47-8.79-19.858a10.27,10.27,0,0,1,6.525-5.53v-.853c-4.265,1.137-7.473,3.54-8.925,7.08-3.862,9.36,6.128,23.264,22.245,30.78,16.127,7.658,32.253,6.1,36.1-3.264,2.528-6.084-.932-14.171-8.125-21.121Zm-35.035-13.765a.623.623,0,0,1,.393-.425h3.6v-3.839q0-.425.394-.425h1.73c.393,0,.535.142.535.425v3.831h3.594a.44.44,0,0,1,.394.425v1.845c0,.283-.132.566-.394.566h-3.579v3.831c0,.283-.129.425-.394.425h-1.73q-.393,0-.394-.425v-3.811h-3.618a.6.6,0,0,1-.535-.424Zm-.022,13.042a.64.64,0,0,1,.534-.711h11.056c.264,0,.53.287.53.711v1.416c0,.429-.267.712-.53.712h-11.04c-.268,0-.535-.283-.535-.712Zm22.646,19.858a.638.638,0,0,1-.536.708h-15.732a37.818,37.818,0,0,1-3.732-2.836h19.615a.637.637,0,0,1,.534.708v1.42Zm6.659-5.675c0,.424-.264.708-.531.708h-28.224a.636.636,0,0,1-.535-.708v-1.42a.636.636,0,0,1,.535-.708h28.373c.268,0,.531.283.531.708v1.42Zm0-5.672c0,.425-.264.708-.531.708h-28.224a.635.635,0,0,1-.535-.708v-1.42a.635.635,0,0,1,.535-.708h28.373c.268,0,.531.283.531.708v1.42Z" transform="translate(-18063.145 10839.528)" fill="#636"/>
  </g>
</svg>
