<svg xmlns="http://www.w3.org/2000/svg" width="78.836" height="80.152" viewBox="0 0 78.836 80.152">
    <path data-name="Path 145" d="M6206.951 1584.58c-5.777-2.61-9.626-3.912-14-7.452v16.77a3.891 3.891 0 0 0 3.5 3.726h42.374a3.243 3.243 0 0 0 3.155-3.325v-3.186c-9.313 2.225-22.439-.57-35.029-6.533zm37.28-35.41v1.866c7.35 7.638 10.678 15.839 8.052 22.175-1.575 3.917-5.426 6.522-10.335 7.829v-44.913h-14a3.893 3.893 0 0 1-3.5-3.731v-11.178c0-.186 1.551 0 1.748 0v9.3c0 1.86 1.227 3.726 2.977 3.726h12.78l-15.757-16.774h-29.754a3.9 3.9 0 0 0-3.5 3.731v44.742c-9.1-8.2-14.35-19.012-11.55-26.092a13.493 13.493 0 0 1 8.574-7.266v-1.121c-5.6 1.494-9.819 4.651-11.728 9.3-5.074 12.3 8.051 30.567 29.228 40.443 21.19 10.062 42.378 8.015 47.436-4.289 3.322-7.994-1.224-18.62-10.675-27.751zm-46.034-18.087a.82.82 0 0 1 .516-.558h4.725v-5.044q0-.559.517-.558h2.274c.517 0 .7.186.7.558v5.033h4.722a.578.578 0 0 1 .517.558v2.424c0 .372-.174.744-.517.744h-4.7v5.034c0 .372-.17.558-.517.558h-2.273q-.516 0-.517-.558v-5.008h-4.753a.793.793 0 0 1-.7-.558zm-.03 17.136a.841.841 0 0 1 .7-.935h14.533c.347 0 .7.377.7.935v1.861c0 .563-.35.936-.7.936h-14.51c-.352 0-.7-.372-.7-.936zm29.756 26.092a.837.837 0 0 1-.7.93h-20.671a49.824 49.824 0 0 1-4.9-3.726h25.773a.837.837 0 0 1 .7.93v1.866zm8.75-7.457c0 .558-.347.93-.7.93h-37.083a.835.835 0 0 1-.7-.93v-1.865a.835.835 0 0 1 .7-.93h37.28c.352 0 .7.372.7.93v1.865zm0-7.452c0 .558-.347.93-.7.93h-37.083a.834.834 0 0 1-.7-.93v-1.865a.835.835 0 0 1 .7-.93h37.28c.352 0 .7.372.7.93v1.865z" transform="translate(-6177.143 -1517.471)" style="fill:#636"/>
</svg>
