<?xml version="1.0" encoding="utf-8"?>
<svg viewBox="21.231 20.499 73.535 73.532" xmlns="http://www.w3.org/2000/svg">
  <defs>
    <linearGradient id="tlf0fv38la" x1="1.035" y1="-.035" x2=".243" y2=".919" gradientUnits="objectBoundingBox">
      <stop offset="0" stop-color="#1d55a3"/>
      <stop offset="0.994" stop-color="#2c4295"/>
    </linearGradient>
    <linearGradient id="w18k46hfgb" x1=".527" y1="-.256" x2=".49" y2=".78" gradientUnits="objectBoundingBox">
      <stop offset="0" stop-color="#fff" stop-opacity=".302"/>
      <stop offset="1" stop-color="#fff" stop-opacity="0"/>
    </linearGradient>
  </defs>
  <g style="" transform="matrix(0.660334, 0, 0, 0.660334, 21.230879, 20.498812)">
    <path data-name="Path 1" d="M 48.15 76.95 L 24.22 101.63 C 13.38 94.2 5.511 83.182 2 70.518 L 32.18 60.928 C 34.598 68.538 40.548 74.508 48.15 76.95 Z" style="fill:#0096d8"/>
    <path data-name="Path 2" d="M 109.03 71.68 C 105.415 83.682 97.867 94.119 87.6 101.31 L 63.79 76.76 C 70.949 74.263 76.559 68.609 79 61.43 L 109.03 71.68 Z" style="fill:#ceeafa"/>
    <path data-name="Path 3" d="M 31.03 53.47 C 31.026 56.001 31.414 58.518 32.18 60.93 L 2 70.518 C -1.103 59.221 -0.585 47.236 3.48 36.248 L 32.27 45.748 C 31.443 48.238 31.024 50.846 31.03 53.47 Z" style="fill:#00a9d7"/>
    <path data-name="Path 4" d="M 41.24 33.5 C 37.032 36.534 33.892 40.822 32.27 45.75 L 3.48 36.25 C 7.487 25.532 14.688 16.303 24.11 9.81 L 41.24 33.5 Z" style="fill:#6fcadf"/>
    <path data-name="Path 5" d="M 55.68 0 L 55.68 28.818 C 50.492 28.805 45.434 30.444 41.24 33.498 L 24.11 9.808 C 33.39 3.402 44.404 -0.02 55.68 0 Z" style="fill:#86c9f0"/>
    <path data-name="Path 6" d="M 87.57 10.04 L 70.27 33.6 C 66.043 30.488 60.929 28.813 55.68 28.82 L 55.68 0 C 67.091 -0.019 78.228 3.487 87.57 10.04 Z" style="fill:#97d4f4"/>
    <path data-name="Path 7" d="M 108.14 36.99 L 79.2 46.08 C 77.628 41.076 74.499 36.704 70.27 33.6 L 87.57 10.04 C 97.06 16.668 104.25 26.088 108.14 36.99 Z" style="fill:#a4d7f5"/>
    <path data-name="Path 8" d="M 111.36 55.68 C 111.367 61.098 110.582 66.489 109.03 71.68 L 79 61.43 C 80.702 56.466 80.772 51.087 79.2 46.08 L 108.14 36.99 C 110.281 42.988 111.37 49.311 111.36 55.68 Z" style="fill:#bce1f7"/>
    <path data-name="Path 9" d="M 87.74 101.206 C 68.677 114.621 43.277 114.749 24.08 101.526 L 48.15 76.946 C 37.943 73.677 31.021 64.184 31.03 53.466 C 31.032 34.489 51.576 22.63 68.01 32.12 C 68.79 32.571 69.544 33.063 70.27 33.596 C 74.499 36.7 77.628 41.072 79.2 46.076 C 80.772 51.083 80.702 56.462 79 61.426 C 76.559 68.605 70.949 74.259 63.79 76.756 L 87.74 101.206 Z" style="fill:url(#tlf0fv38la)"/>
    <path data-name="Path 10" d="M 87.74 101.206 C 68.677 114.621 43.277 114.749 24.08 101.526 L 48.15 76.946 C 37.943 73.677 31.021 64.184 31.03 53.466 C 31.032 34.489 51.576 22.63 68.01 32.12 C 68.79 32.571 69.544 33.063 70.27 33.596 C 74.499 36.7 77.628 41.072 79.2 46.076 C 80.772 51.083 80.702 56.462 79 61.426 C 76.559 68.605 70.949 74.259 63.79 76.756 L 87.74 101.206 Z" style="fill:none;stroke:#fff;stroke-miterlimit:10;stroke-width:2px"/>
    <ellipse data-name="Ellipse 7" cx="55.68" cy="44.733" rx="15.945" ry="11.233" style="fill:url(#w18k46hfgb)"/>
  </g>
</svg>