<svg xmlns="http://www.w3.org/2000/svg" width="220.1" height="56" viewBox="0 0 440.237 112.356">
    <defs>
        <linearGradient id="tlf0fv38la" x1="1.035" y1="-.035" x2=".243" y2=".919" gradientUnits="objectBoundingBox">
            <stop offset="0" stop-color="#1d55a3"/>
            <stop offset=".994" stop-color="#2c4295"/>
        </linearGradient>
        <linearGradient id="w18k46hfgb" x1=".527" y1="-.256" x2=".49" y2=".78" gradientUnits="objectBoundingBox">
            <stop offset="0" stop-color="#fff" stop-opacity=".302"/>
            <stop offset="1" stop-color="#fff" stop-opacity="0"/>
        </linearGradient>
    </defs>
    <g data-name="Group 1">
        <path data-name="Path 2978" d="M5.938-51.689h28.217v9.628H15.707v9.347h18.448v9.452H15.707v13.6h18.448V0H5.938zm34.647 0h31.274L53.411-9.452h17.253V0h-31.59l18.378-41.956H40.585zm58.857 0h9.839v42.307h14.337V0H99.443zm56.081-1.3a25.643 25.643 0 0 1 18.852 7.941 26.436 26.436 0 0 1 7.889 19.361 26.141 26.141 0 0 1-7.783 19.151A25.63 25.63 0 0 1 155.594 1.3a25.621 25.621 0 0 1-19.326-8.047 26.714 26.714 0 0 1-7.7-19.115 26.825 26.825 0 0 1 3.589-13.638 26.532 26.532 0 0 1 9.856-9.856 26.483 26.483 0 0 1 13.511-3.633zm-.105 9.628a16.2 16.2 0 0 0-12.053 4.99 17.384 17.384 0 0 0-4.884 12.685q0 8.574 6.149 13.564a16.848 16.848 0 0 0 10.963 3.9 16 16 0 0 0 11.912-5.06 17.2 17.2 0 0 0 4.919-12.474 17.274 17.274 0 0 0-4.955-12.492 16.152 16.152 0 0 0-12.05-5.113zm83.841.105-6.922 6.856q-6.571-6.957-15.32-6.957a17.5 17.5 0 0 0-12.773 5.06A16.6 16.6 0 0 0 199.1-26a17.032 17.032 0 0 0 5.341 12.685 18.156 18.156 0 0 0 13.177 5.2 16.149 16.149 0 0 0 8.591-2.143 15.084 15.084 0 0 0 5.64-6.711h-14.973v-9.241h26l.07 2.179a25.306 25.306 0 0 1-3.514 12.861 24.566 24.566 0 0 1-9.1 9.277 25.934 25.934 0 0 1-13.107 3.2 29.107 29.107 0 0 1-14.354-3.5 25.577 25.577 0 0 1-9.979-9.962 27.781 27.781 0 0 1-3.672-13.95A25.926 25.926 0 0 1 196-43.959q8.047-9.031 20.943-9.031a31.9 31.9 0 0 1 12.615 2.495 28.93 28.93 0 0 1 9.702 7.239zm12.017-8.433h9.769V0h-9.769zm20.872 0h9.417l22.173 34.014v-34.014h9.839V0h-9.452l-22.137-33.909V0h-9.839z" transform="translate(126.659 81.279)" style="fill:#1d55a3"/>
        <g data-name="Group 1" transform="translate(-140.2 -856.582)">
            <path data-name="Path 1" d="m188.35 933.532-23.93 24.68A55.784 55.784 0 0 1 142.2 927.1l30.18-9.59a24.677 24.677 0 0 0 15.97 16.022z" style="fill:#0096d8"/>
            <path data-name="Path 2" d="M249.23 928.262a55.837 55.837 0 0 1-21.43 29.63l-23.81-24.55a24.633 24.633 0 0 0 15.21-15.33z" style="fill:#ceeafa"/>
            <path data-name="Path 3" d="M171.23 910.052a24.511 24.511 0 0 0 1.15 7.46L142.2 927.1a56.014 56.014 0 0 1 1.48-34.27l28.79 9.5a24.341 24.341 0 0 0-1.24 7.722z" style="fill:#00a9d7"/>
            <path data-name="Path 4" d="M181.44 890.082a24.575 24.575 0 0 0-8.97 12.25l-28.79-9.5a55.868 55.868 0 0 1 20.63-26.44z" style="fill:#6fcadf"/>
            <path data-name="Path 5" d="M195.88 856.582V885.4a24.431 24.431 0 0 0-14.44 4.68l-17.13-23.69a55.4 55.4 0 0 1 31.57-9.808z" style="fill:#86c9f0"/>
            <path data-name="Path 6" d="m227.77 866.622-17.3 23.56a24.558 24.558 0 0 0-14.59-4.78v-28.82a55.37 55.37 0 0 1 31.89 10.04z" style="fill:#97d4f4"/>
            <path data-name="Path 7" d="m248.34 893.572-28.94 9.09a24.642 24.642 0 0 0-8.93-12.48l17.3-23.56a55.713 55.713 0 0 1 20.57 26.95z" style="fill:#a4d7f5"/>
            <path data-name="Path 8" d="M251.56 912.262a55.625 55.625 0 0 1-2.33 16l-30.03-10.25a24.6 24.6 0 0 0 .2-15.35l28.94-9.09a55.348 55.348 0 0 1 3.22 18.69z" style="fill:#bce1f7"/>
            <path data-name="Path 9" d="M227.94 957.788a55.707 55.707 0 0 1-63.66.32l24.07-24.58a24.632 24.632 0 0 1-17.12-23.48 24.652 24.652 0 0 1 39.24-19.87 24.642 24.642 0 0 1 8.93 12.48 24.6 24.6 0 0 1-.2 15.35 24.633 24.633 0 0 1-15.21 15.33z" style="fill:url(#tlf0fv38la)"/>
            <path data-name="Path 10" d="M227.94 957.788a55.707 55.707 0 0 1-63.66.32l24.07-24.58a24.632 24.632 0 0 1-17.12-23.48 24.652 24.652 0 0 1 39.24-19.87 24.642 24.642 0 0 1 8.93 12.48 24.6 24.6 0 0 1-.2 15.35 24.633 24.633 0 0 1-15.21 15.33z" style="fill:none;stroke:#fff;stroke-miterlimit:10;stroke-width:2px"/>
            <ellipse data-name="Ellipse 7" cx="15.945" cy="11.233" rx="15.945" ry="11.233" transform="translate(179.935 890.082)" style="fill:url(#w18k46hfgb)"/>
        </g>
    </g>
</svg>
