<svg data-name="Group 2199" xmlns="http://www.w3.org/2000/svg" width="81.499" height="80.616" viewBox="0 0 81.499 80.616">
    <g data-name="Group 76">
        <path data-name="Path 138" d="M213.192 130.033a68.53 68.53 0 0 0 12.958 9.308l8.163-.723 2.395 5.669a72.5 72.5 0 0 0 14.161 3.865l11.178-60.032-49.3 41.6z" transform="translate(-198.428 -88.121)" style="fill:#5e4e89"/>
        <path data-name="Path 139" d="m268.677 219.346 7.829 18.533 3.094-16.618a68.565 68.565 0 0 1-10.923-1.915z" transform="translate(-227.897 -157.263)" style="fill:#5e4e89"/>
        <path data-name="Path 140" d="m193.8 181.394-11.319 9.55 19.987-1.771a49.088 49.088 0 0 1-8.668-7.779z" transform="translate(-182.481 -137.266)" style="fill:#5e4e89"/>
    </g>
    <path data-name="Path 141" d="M194.318 114.009c3.82-1.891 9.307-2.789 15.569-2.643v.877c-6.432-.092-14.26.624-18.247 5.757-2.855 3.674-2.577 8.673.58 14.08 4.653 7.976 14.183 14.849 22.531 19.125 14.794 7.568 31.744 10.337 41.544 6.085 10.875-4.724 7.3-18.673-5.328-30.2l-.092-.955c16.67 13.577 19.975 29.113 7.251 35.008-10 4.628-28.881 2.691-45.024-4.745-10.052-4.63-21.677-12.91-25.7-23.2-3.249-8.325-.35-15.583 6.916-19.18" transform="translate(-184.378 -100.361)" style="fill-rule:evenodd;fill:#5e4e89"/>
</svg>
