<svg data-name="Group 6496" xmlns="http://www.w3.org/2000/svg" width="86.109" height="86.464" viewBox="0 0 86.109 86.464">
    <g data-name="Group 2210">
        <path data-name="Path 866" d="M2789.55 4094.251c4.122-2.042 10.042-3.009 16.8-2.852v.946c-6.94-.1-15.387.674-19.69 6.212-3.081 3.964-2.781 9.359.626 15.194 5.021 8.606 15.305 16.023 24.313 20.637 15.964 8.167 34.255 11.154 44.831 6.568 11.735-5.1 7.882-20.15-5.75-32.595l-.1-1.031c17.988 14.65 21.555 31.416 7.824 37.777-10.792 4.993-31.166 2.9-48.585-5.12-10.847-5-23.392-13.932-27.733-25.039-3.506-8.983-.377-16.815 7.463-20.7" transform="translate(-2780.66 -4077.753)" style="fill:#4c4167;fill-rule:evenodd"/>
        <path data-name="Path 867" d="m2889.512 4068.179-23.889-13.611a2.656 2.656 0 0 0-3.607.966l-.46.787a2.655 2.655 0 0 0 .978 3.647l.514.293-27.818 47.539a47.9 47.9 0 0 0 10.438 7.162 52.213 52.213 0 0 0 13.3 4.7l11.881-20.3a33.875 33.875 0 0 0-.724-.681l-.062-.645q.538.438 1.047.879l14.942-25.536.369.21a2.654 2.654 0 0 0 3.606-.966l.46-.787a2.654 2.654 0 0 0-.975-3.657zm-22.722 30.6-19.368-4.307 18.413-31.466 16.415 9.353z" transform="translate(-2815.218 -4054.219)" style="fill:#4c4167;fill-rule:evenodd"/>
        <path data-name="Path 868" d="m2816.578 4209.394-6.137 10.489a11.57 11.57 0 0 0 4.258 15.9l2.9 1.653a11.569 11.569 0 0 0 15.713-4.209l7.271-12.426a55.244 55.244 0 0 1-12.734-4.063 44.893 44.893 0 0 1-11.271-7.344z" transform="translate(-2798.513 -4152.487)" style="fill:#4c4167;fill-rule:evenodd"/>
        <path data-name="Path 869" d="m2887.843 4159.808-16.492-9.223-2.876 4.916z" transform="translate(-2836.271 -4115.245)" style="fill:#4c4167;fill-rule:evenodd"/>
        <path data-name="Path 870" d="m2930.588 4173.051-.261.446-1.021-.223-.157-1.439.94-.533z" transform="translate(-2874.694 -4128.365)" style="fill:#4c4167;fill-rule:evenodd"/>
    </g>
</svg>
