<svg xmlns="http://www.w3.org/2000/svg" width="102.555" height="120.886" viewBox="0 0 102.555 120.886">
  <g id="Group_8628" data-name="Group 8628" transform="translate(784.917 -917.58)">
    <g id="Group_8634" data-name="Group 8634" transform="translate(-765.067 917.58)">
      <g id="Group_8628-2" data-name="Group 8628" transform="translate(18.056 12.937)">
        <path id="Path_3348" data-name="Path 3348" d="M-604.2,974.427a14.28,14.28,0,0,0-14.155,12.394h4.569a9.782,9.782,0,0,1,9.586-7.884,9.781,9.781,0,0,1,9.771,9.769,9.781,9.781,0,0,1-9.771,9.769,9.8,9.8,0,0,1-8.505-4.959h-4.942c.132.371.28.734.44,1.091a14.285,14.285,0,0,0,13.007,8.377,14.28,14.28,0,0,0,14.281-14.279A14.28,14.28,0,0,0-604.2,974.427Z" transform="translate(618.351 -974.427)" fill="#515aae"/>
      </g>
      <g id="Group_8629" data-name="Group 8629" transform="translate(10.56)">
        <path id="Path_3349" data-name="Path 3349" d="M-629.641,917.58A21.654,21.654,0,0,0-651.292,938.9h4.509a17.166,17.166,0,0,1,17.142-16.815A17.167,17.167,0,0,1-612.5,938.9h4.51A21.654,21.654,0,0,0-629.641,917.58Z" transform="translate(651.292 -917.58)" fill="#8246af"/>
      </g>
      <g id="Group_8630" data-name="Group 8630" transform="translate(29.956 40.716)">
        <rect id="Rectangle_3217" data-name="Rectangle 3217" width="4.51" height="45.863" fill="#515aae"/>
      </g>
      <g id="Group_8631" data-name="Group 8631" transform="translate(29.956 82.069)">
        <rect id="Rectangle_3218" data-name="Rectangle 3218" width="12.045" height="4.51" fill="#515aae"/>
      </g>
      <g id="Group_8632" data-name="Group 8632" transform="translate(29.956 72.852)">
        <rect id="Rectangle_3219" data-name="Rectangle 3219" width="8.808" height="4.51" fill="#515aae"/>
      </g>
      <g id="Group_8633" data-name="Group 8633" transform="translate(0 24.685)">
        <path id="Path_3350" data-name="Path 3350" d="M-645.617,1026.051h-4.773a15.4,15.4,0,0,1,.209,2.531,15.541,15.541,0,0,1-.126,1.979h4.69a7.847,7.847,0,0,1,7.837,7.838v27.982a7.837,7.837,0,0,1-7.837,7.838h-7.637a2.255,2.255,0,0,0-2.255,2.255h0a2.255,2.255,0,0,0,2.255,2.255h7.637a12.347,12.347,0,0,0,12.347-12.347V1038.4A12.347,12.347,0,0,0-645.617,1026.051Zm-52.076,12.347v27.982a12.347,12.347,0,0,0,12.347,12.347h17.609v-4.51h-17.609a7.837,7.837,0,0,1-7.837-7.838V1038.4a7.838,7.838,0,0,1,7.837-7.838h19.254a2.254,2.254,0,0,0,2.255-2.255h0a2.255,2.255,0,0,0-2.255-2.255h-19.254A12.347,12.347,0,0,0-697.693,1038.4Z" transform="translate(697.693 -1026.051)" fill="#8246af"/>
      </g>
    </g>
    <g id="Group_8637" data-name="Group 8637" transform="translate(-784.917 1014.376)">
      <g id="Group_8635" data-name="Group 8635" transform="translate(0 0)">
        <path id="Path_3351" data-name="Path 3351" d="M-784.917,1344.6h8.308v2.835h-5.432v2.752h5.432v2.783h-5.432v4h5.432v2.845h-8.308Z" transform="translate(784.917 -1344.221)" fill="#363636"/>
        <path id="Path_3352" data-name="Path 3352" d="M-734.151,1344.6h9.208l-5.419,12.436h5.067v2.783h-9.3l5.394-12.354h-4.949Z" transform="translate(746.048 -1344.221)" fill="#363636"/>
        <path id="Path_3353" data-name="Path 3353" d="M-641.592,1344.6h2.9v12.457h4.221v2.763h-7.118Z" transform="translate(674.209 -1344.221)" fill="#363636"/>
        <path id="Path_3354" data-name="Path 3354" d="M-588.558,1342.921a7.559,7.559,0,0,1,5.554,2.338,7.781,7.781,0,0,1,2.325,5.7,7.694,7.694,0,0,1-2.294,5.639,7.553,7.553,0,0,1-5.564,2.307,7.551,7.551,0,0,1-5.694-2.37,7.862,7.862,0,0,1-2.267-5.628,7.9,7.9,0,0,1,1.056-4.015,7.82,7.82,0,0,1,2.9-2.9A7.808,7.808,0,0,1-588.558,1342.921Zm-.031,2.835a4.778,4.778,0,0,0-3.552,1.469,5.115,5.115,0,0,0-1.44,3.735,4.867,4.867,0,0,0,1.813,3.994,4.967,4.967,0,0,0,3.231,1.148,4.718,4.718,0,0,0,3.511-1.49,5.062,5.062,0,0,0,1.45-3.673,5.082,5.082,0,0,0-1.461-3.678A4.761,4.761,0,0,0-588.589,1345.756Z" transform="translate(639.378 -1342.921)" fill="#363636"/>
        <path id="Path_3355" data-name="Path 3355" d="M-495.8,1345.787l-2.04,2.017a6.032,6.032,0,0,0-4.515-2.049,5.16,5.16,0,0,0-3.764,1.49,4.885,4.885,0,0,0-1.517,3.621,5.012,5.012,0,0,0,1.574,3.735,5.355,5.355,0,0,0,3.884,1.531,4.768,4.768,0,0,0,2.532-.631,4.444,4.444,0,0,0,1.662-1.976h-4.408v-2.721h7.656l.02.641a7.453,7.453,0,0,1-1.034,3.787,7.235,7.235,0,0,1-2.68,2.731,7.637,7.637,0,0,1-3.859.942,8.57,8.57,0,0,1-4.227-1.03,7.526,7.526,0,0,1-2.938-2.933,8.179,8.179,0,0,1-1.081-4.107,7.633,7.633,0,0,1,2-5.256,7.872,7.872,0,0,1,6.166-2.659,9.4,9.4,0,0,1,3.714.734A8.52,8.52,0,0,1-495.8,1345.787Z" transform="translate(572.975 -1342.921)" fill="#363636"/>
        <path id="Path_3356" data-name="Path 3356" d="M-422.8,1344.6h2.876v15.219H-422.8Z" transform="translate(505.205 -1344.221)" fill="#363636"/>
        <path id="Path_3357" data-name="Path 3357" d="M-388.341,1344.6h2.779l6.512,10.015V1344.6h2.9v15.219h-2.787l-6.5-9.984v9.984h-2.9Z" transform="translate(478.591 -1344.221)" fill="#363636"/>
      </g>
      <g id="Group_8636" data-name="Group 8636" transform="translate(0.159 19.396)">
        <path id="Path_3358" data-name="Path 3358" d="M-782,1428.646l2.084,4.469h-.482l-.7-1.47h-1.925l-.7,1.47h-.5l2.111-4.469Zm-.056.949-.766,1.617h1.528Z" transform="translate(784.219 -1428.534)" fill="#363636"/>
        <path id="Path_3359" data-name="Path 3359" d="M-752.347,1431.9l.38-.228q.4.738.927.738a.889.889,0,0,0,.422-.1.74.74,0,0,0,.3-.281.726.726,0,0,0,.1-.373.758.758,0,0,0-.152-.441,3.633,3.633,0,0,0-.766-.717,3.9,3.9,0,0,1-.7-.611,1.116,1.116,0,0,1-.237-.683,1.039,1.039,0,0,1,.14-.532,1,1,0,0,1,.393-.378,1.133,1.133,0,0,1,.551-.138,1.175,1.175,0,0,1,.591.156,2.026,2.026,0,0,1,.582.576l-.365.276a1.748,1.748,0,0,0-.43-.44.739.739,0,0,0-.387-.106.613.613,0,0,0-.442.164.536.536,0,0,0-.172.4.687.687,0,0,0,.061.282,1.035,1.035,0,0,0,.222.3q.088.085.577.447a3.252,3.252,0,0,1,.8.763,1.227,1.227,0,0,1,.216.671,1.14,1.14,0,0,1-.369.845,1.242,1.242,0,0,1-.9.358,1.318,1.318,0,0,1-.738-.217A1.985,1.985,0,0,1-752.347,1431.9Z" transform="translate(759.6 -1428.152)" fill="#363636"/>
        <path id="Path_3360" data-name="Path 3360" d="M-735.409,1433.115l.64-4.469h.073l1.817,3.667,1.8-3.667h.072l.643,4.469h-.438l-.442-3.2-1.58,3.2h-.114l-1.6-3.22-.439,3.22Z" transform="translate(746.517 -1428.534)" fill="#363636"/>
        <path id="Path_3361" data-name="Path 3361" d="M-706.719,1428.646l2.084,4.469h-.482l-.7-1.47h-1.925l-.7,1.47h-.5l2.111-4.469Zm-.056.949-.766,1.617h1.527Z" transform="translate(726.071 -1428.534)" fill="#363636"/>
        <path id="Path_3362" data-name="Path 3362" d="M-684.688,1428.646h.89a5.392,5.392,0,0,1,1.009.061,1.15,1.15,0,0,1,.647.391,1.116,1.116,0,0,1,.249.738,1.192,1.192,0,0,1-.172.642,1.07,1.07,0,0,1-.491.418,2.258,2.258,0,0,1-.881.145l1.607,2.075h-.553l-1.607-2.075h-.253v2.075h-.446Zm.446.438v1.519l.77.006a1.909,1.909,0,0,0,.662-.085.69.69,0,0,0,.335-.272.756.756,0,0,0,.12-.418.723.723,0,0,0-.122-.409.676.676,0,0,0-.319-.263,1.94,1.94,0,0,0-.657-.079Z" transform="translate(707.339 -1428.534)" fill="#363636"/>
        <path id="Path_3363" data-name="Path 3363" d="M-667.964,1429.083v-.437h2.448v.438h-1v4.031h-.456v-4.031Z" transform="translate(694.42 -1428.534)" fill="#363636"/>
        <path id="Path_3364" data-name="Path 3364" d="M-642.431,1428.646h.456v1.677l1.786-1.677h.6l-2.146,2.005,2.314,2.464h-.595l-1.958-2.082v2.082h-.456Z" transform="translate(674.698 -1428.534)" fill="#363636"/>
        <path id="Path_3365" data-name="Path 3365" d="M-624.079,1428.646h2.561v.438h-2.114v1.4h2.1v.438h-2.1v1.756h2.1v.437h-2.543Z" transform="translate(660.522 -1428.534)" fill="#363636"/>
        <path id="Path_3366" data-name="Path 3366" d="M-608.8,1428.646h.514l1.143,1.843,1.126-1.843h.516l-1.416,2.333v2.136h-.44v-2.136Z" transform="translate(648.718 -1428.534)" fill="#363636"/>
        <path id="Path_3367" data-name="Path 3367" d="M-581.075,1429.083v-.437h2.448v.438h-1v4.031h-.456v-4.031Z" transform="translate(627.305 -1428.534)" fill="#363636"/>
        <path id="Path_3368" data-name="Path 3368" d="M-563.841,1428.152a2.319,2.319,0,0,1,1.7.677,2.256,2.256,0,0,1,.684,1.668,2.267,2.267,0,0,1-.682,1.665,2.262,2.262,0,0,1-1.664.684,2.287,2.287,0,0,1-1.678-.68,2.237,2.237,0,0,1-.684-1.647,2.383,2.383,0,0,1,.312-1.194,2.268,2.268,0,0,1,.85-.861A2.284,2.284,0,0,1-563.841,1428.152Zm.02.434a1.842,1.842,0,0,0-.94.258,1.862,1.862,0,0,0-.694.7,1.938,1.938,0,0,0-.249.976,1.824,1.824,0,0,0,.552,1.346,1.82,1.82,0,0,0,1.331.549,1.91,1.91,0,0,0,.963-.252,1.805,1.805,0,0,0,.691-.69,1.937,1.937,0,0,0,.248-.973,1.891,1.891,0,0,0-.248-.963,1.853,1.853,0,0,0-.7-.689A1.89,1.89,0,0,0-563.822,1428.586Z" transform="translate(615.79 -1428.152)" fill="#363636"/>
        <path id="Path_3369" data-name="Path 3369" d="M-529.582,1428.646h2.561v.438h-2.114v1.4h2.1v.438h-2.1v1.756h2.1v.437h-2.543Z" transform="translate(587.531 -1428.534)" fill="#363636"/>
        <path id="Path_3370" data-name="Path 3370" d="M-514.193,1429.077v-.431h2.357l-1.867,4.031h1.773v.437h-2.464l1.883-4.037Z" transform="translate(575.799 -1428.534)" fill="#363636"/>
        <path id="Path_3371" data-name="Path 3371" d="M-487.7,1428.646h.89a5.149,5.149,0,0,1,1.033.067,1.149,1.149,0,0,1,.626.387,1.115,1.115,0,0,1,.243.737,1.126,1.126,0,0,1-.237.737,1.167,1.167,0,0,1-.653.39,5.783,5.783,0,0,1-1.136.073h-.319v2.078h-.447Zm.447.438v1.516l.756.009a1.976,1.976,0,0,0,.671-.083.689.689,0,0,0,.334-.27.749.749,0,0,0,.121-.417.739.739,0,0,0-.121-.411.672.672,0,0,0-.32-.265,1.924,1.924,0,0,0-.652-.079Z" transform="translate(555.179 -1428.534)" fill="#363636"/>
        <path id="Path_3372" data-name="Path 3372" d="M-469.214,1428.646h.89a5.392,5.392,0,0,1,1.009.061,1.15,1.15,0,0,1,.647.391,1.116,1.116,0,0,1,.249.738,1.194,1.194,0,0,1-.172.642,1.069,1.069,0,0,1-.491.418,2.258,2.258,0,0,1-.881.145l1.607,2.075h-.553l-1.607-2.075h-.252v2.075h-.447Zm.447.438v1.519l.77.006a1.909,1.909,0,0,0,.662-.085.688.688,0,0,0,.335-.272.756.756,0,0,0,.12-.418.723.723,0,0,0-.122-.409.678.678,0,0,0-.319-.263,1.94,1.94,0,0,0-.657-.079Z" transform="translate(540.901 -1428.534)" fill="#363636"/>
        <path id="Path_3373" data-name="Path 3373" d="M-449.082,1428.152a2.319,2.319,0,0,1,1.7.677,2.256,2.256,0,0,1,.684,1.668,2.267,2.267,0,0,1-.682,1.665,2.262,2.262,0,0,1-1.664.684,2.287,2.287,0,0,1-1.678-.68,2.237,2.237,0,0,1-.684-1.647,2.384,2.384,0,0,1,.312-1.194,2.269,2.269,0,0,1,.85-.861A2.285,2.285,0,0,1-449.082,1428.152Zm.02.434a1.841,1.841,0,0,0-.94.258,1.86,1.86,0,0,0-.694.7,1.933,1.933,0,0,0-.25.976,1.824,1.824,0,0,0,.552,1.346,1.82,1.82,0,0,0,1.331.549,1.911,1.911,0,0,0,.963-.252,1.806,1.806,0,0,0,.691-.69,1.937,1.937,0,0,0,.248-.973,1.891,1.891,0,0,0-.248-.963,1.855,1.855,0,0,0-.7-.689A1.891,1.891,0,0,0-449.063,1428.586Z" transform="translate(527.147 -1428.152)" fill="#363636"/>
        <path id="Path_3374" data-name="Path 3374" d="M-424.592,1433.115v-4.469h.926a4.727,4.727,0,0,1,1.455.161,1.943,1.943,0,0,1,1.016.79,2.4,2.4,0,0,1,.366,1.339,2.351,2.351,0,0,1-.29,1.182,1.861,1.861,0,0,1-.753.753,2.836,2.836,0,0,1-1.3.243Zm.428-.422h.517a4.806,4.806,0,0,0,1.285-.115,1.48,1.48,0,0,0,.793-.59,1.819,1.819,0,0,0,.289-1.043,1.912,1.912,0,0,0-.313-1.1,1.573,1.573,0,0,0-.872-.628,5.263,5.263,0,0,0-1.382-.127h-.316Z" transform="translate(506.433 -1428.534)" fill="#363636"/>
        <path id="Path_3375" data-name="Path 3375" d="M-401.995,1428.646h.447v2.7a5.555,5.555,0,0,0,.018.6.991.991,0,0,0,.155.442.91.91,0,0,0,.373.3,1.168,1.168,0,0,0,.507.12,1,1,0,0,0,.425-.094.949.949,0,0,0,.34-.261,1.07,1.07,0,0,0,.2-.4,3.355,3.355,0,0,0,.046-.7v-2.7h.446v2.7a3.288,3.288,0,0,1-.117.968,1.317,1.317,0,0,1-.468.643,1.34,1.34,0,0,1-.849.273,1.628,1.628,0,0,1-.926-.258,1.246,1.246,0,0,1-.517-.684,3.621,3.621,0,0,1-.082-.942Z" transform="translate(488.979 -1428.534)" fill="#363636"/>
        <path id="Path_3376" data-name="Path 3376" d="M-378.514,1429.094l-.352.27a1.926,1.926,0,0,0-.7-.576,2.047,2.047,0,0,0-.9-.2,1.982,1.982,0,0,0-.99.257,1.842,1.842,0,0,0-.706.69,1.907,1.907,0,0,0-.251.974,1.828,1.828,0,0,0,.561,1.364,1.941,1.941,0,0,0,1.414.547,1.989,1.989,0,0,0,1.571-.735l.352.267a2.25,2.25,0,0,1-.834.657,2.613,2.613,0,0,1-1.116.233,2.323,2.323,0,0,1-1.85-.781,2.356,2.356,0,0,1-.568-1.592,2.213,2.213,0,0,1,.688-1.651,2.372,2.372,0,0,1,1.724-.67,2.529,2.529,0,0,1,1.13.248A2.194,2.194,0,0,1-378.514,1429.094Z" transform="translate(474.215 -1428.152)" fill="#363636"/>
        <path id="Path_3377" data-name="Path 3377" d="M-359.51,1429.083v-.437h2.448v.438h-1v4.031h-.456v-4.031Z" transform="translate(456.162 -1428.534)" fill="#363636"/>
        <path id="Path_3378" data-name="Path 3378" d="M-345.763,1431.9l.38-.228q.4.738.927.738a.888.888,0,0,0,.422-.1.74.74,0,0,0,.3-.281.726.726,0,0,0,.1-.373.756.756,0,0,0-.152-.441,3.629,3.629,0,0,0-.765-.717,3.892,3.892,0,0,1-.7-.611,1.115,1.115,0,0,1-.237-.683,1.038,1.038,0,0,1,.14-.532,1,1,0,0,1,.393-.378,1.134,1.134,0,0,1,.551-.138,1.175,1.175,0,0,1,.591.156,2.026,2.026,0,0,1,.582.576l-.365.276a1.743,1.743,0,0,0-.43-.44.739.739,0,0,0-.387-.106.613.613,0,0,0-.442.164.536.536,0,0,0-.172.4.691.691,0,0,0,.061.282,1.044,1.044,0,0,0,.222.3q.088.085.577.447a3.251,3.251,0,0,1,.8.763,1.227,1.227,0,0,1,.216.671,1.139,1.139,0,0,1-.369.845,1.241,1.241,0,0,1-.9.358,1.317,1.317,0,0,1-.738-.217A1.983,1.983,0,0,1-345.763,1431.9Z" transform="translate(445.544 -1428.152)" fill="#363636"/>
      </g>
    </g>
  </g>
</svg>
