<svg xmlns="http://www.w3.org/2000/svg" width="16" height="16" viewBox="0 0 16 16">
  <g id="_16x16" data-name="16x16" transform="translate(-65 -43)">
    <rect id="Rectangle_3296" data-name="Rectangle 3296" width="16" height="16" transform="translate(65 43)" fill="none"/>
    <g id="Group_8676" data-name="Group 8676" transform="translate(67.792 44)">
      <g id="Group_8628" data-name="Group 8628" transform="translate(2.92 2.092)">
        <path id="Path_3348" data-name="Path 3348" d="M-616.062,974.427a2.309,2.309,0,0,0-2.289,2h.739a1.582,1.582,0,0,1,1.55-1.275,1.582,1.582,0,0,1,1.58,1.58,1.582,1.582,0,0,1-1.58,1.58,1.584,1.584,0,0,1-1.375-.8h-.8c.021.06.045.119.071.176a2.31,2.31,0,0,0,2.1,1.355,2.309,2.309,0,0,0,2.309-2.309A2.309,2.309,0,0,0-616.062,974.427Z" transform="translate(618.351 -974.427)" fill="#515aae"/>
      </g>
      <g id="Group_8629" data-name="Group 8629" transform="translate(1.707)">
        <path id="Path_3349" data-name="Path 3349" d="M-647.791,917.58a3.5,3.5,0,0,0-3.5,3.448h.729a2.776,2.776,0,0,1,2.772-2.719,2.776,2.776,0,0,1,2.772,2.719h.729A3.5,3.5,0,0,0-647.791,917.58Z" transform="translate(651.292 -917.58)" fill="#8246af"/>
      </g>
      <g id="Group_8630" data-name="Group 8630" transform="translate(4.844 6.584)">
        <rect id="Rectangle_3217" data-name="Rectangle 3217" width="0.729" height="7.416" fill="#515aae"/>
      </g>
      <g id="Group_8631" data-name="Group 8631" transform="translate(4.844 13.27)">
        <rect id="Rectangle_3218" data-name="Rectangle 3218" width="1.948" height="0.729" fill="#515aae"/>
      </g>
      <g id="Group_8632" data-name="Group 8632" transform="translate(4.844 11.78)">
        <rect id="Rectangle_3219" data-name="Rectangle 3219" width="1.424" height="0.729" fill="#515aae"/>
      </g>
      <g id="Group_8633" data-name="Group 8633" transform="translate(0 3.992)">
        <path id="Path_3350" data-name="Path 3350" d="M-689.272,1026.051h-.772a2.482,2.482,0,0,1,.034.409,2.513,2.513,0,0,1-.02.32h.758a1.269,1.269,0,0,1,1.267,1.267v4.525a1.267,1.267,0,0,1-1.267,1.267h-1.235a.365.365,0,0,0-.365.365h0a.364.364,0,0,0,.365.365h1.235a2,2,0,0,0,2-2v-4.525A2,2,0,0,0-689.272,1026.051Zm-8.421,2v4.525a2,2,0,0,0,2,2h2.847v-.729H-695.7a1.267,1.267,0,0,1-1.267-1.267v-4.525a1.267,1.267,0,0,1,1.267-1.267h3.113a.364.364,0,0,0,.365-.365h0a.365.365,0,0,0-.365-.365H-695.7A2,2,0,0,0-697.693,1028.047Z" transform="translate(697.693 -1026.051)" fill="#8246af"/>
      </g>
    </g>
  </g>
</svg>
