<svg xmlns="http://www.w3.org/2000/svg" width="30" height="30" viewBox="0 0 30 30">
  <g id="_30_x_30" data-name="30 x 30" transform="translate(-103 -43)">
    <rect id="Rectangle_3297" data-name="Rectangle 3297" width="30" height="30" transform="translate(103 43)" fill="none"/>
    <g id="Group_8677" data-name="Group 8677" transform="translate(107.583 44)">
      <g id="Group_8628" data-name="Group 8628" transform="translate(5.839 4.184)">
        <path id="Path_3348" data-name="Path 3348" d="M-613.773,974.427a4.618,4.618,0,0,0-4.578,4.008h1.478a3.164,3.164,0,0,1,3.1-2.55,3.163,3.163,0,0,1,3.16,3.16,3.163,3.163,0,0,1-3.16,3.16,3.169,3.169,0,0,1-2.751-1.6h-1.6c.042.12.09.238.142.353a4.62,4.62,0,0,0,4.207,2.709,4.618,4.618,0,0,0,4.618-4.618A4.618,4.618,0,0,0-613.773,974.427Z" transform="translate(618.351 -974.427)" fill="#515aae"/>
      </g>
      <g id="Group_8629" data-name="Group 8629" transform="translate(3.415)">
        <path id="Path_3349" data-name="Path 3349" d="M-644.29,917.58a7,7,0,0,0-7,6.9h1.458a5.552,5.552,0,0,1,5.544-5.438,5.552,5.552,0,0,1,5.544,5.438h1.458A7,7,0,0,0-644.29,917.58Z" transform="translate(651.292 -917.58)" fill="#8246af"/>
      </g>
      <g id="Group_8630" data-name="Group 8630" transform="translate(9.688 13.168)">
        <rect id="Rectangle_3217" data-name="Rectangle 3217" width="1.458" height="14.832" fill="#515aae"/>
      </g>
      <g id="Group_8631" data-name="Group 8631" transform="translate(9.688 26.541)">
        <rect id="Rectangle_3218" data-name="Rectangle 3218" width="3.896" height="1.458" fill="#515aae"/>
      </g>
      <g id="Group_8632" data-name="Group 8632" transform="translate(9.688 23.56)">
        <rect id="Rectangle_3219" data-name="Rectangle 3219" width="2.849" height="1.458" fill="#515aae"/>
      </g>
      <g id="Group_8633" data-name="Group 8633" transform="translate(0 7.983)">
        <path id="Path_3350" data-name="Path 3350" d="M-680.852,1026.051h-1.543a4.964,4.964,0,0,1,.068.818,5.026,5.026,0,0,1-.041.64h1.517a2.538,2.538,0,0,1,2.535,2.534v9.05a2.535,2.535,0,0,1-2.535,2.535h-2.47a.729.729,0,0,0-.729.729h0a.729.729,0,0,0,.729.729h2.47a3.993,3.993,0,0,0,3.993-3.993v-9.05A3.993,3.993,0,0,0-680.852,1026.051Zm-16.842,3.993v9.05a3.993,3.993,0,0,0,3.993,3.993H-688v-1.458H-693.7a2.535,2.535,0,0,1-2.535-2.535v-9.05a2.535,2.535,0,0,1,2.535-2.534h6.227a.729.729,0,0,0,.729-.729h0a.729.729,0,0,0-.729-.729H-693.7A3.993,3.993,0,0,0-697.693,1030.044Z" transform="translate(697.693 -1026.051)" fill="#8246af"/>
      </g>
    </g>
  </g>
</svg>
